<?xml version="1.0" encoding="utf-8"?>
<!-- Generator: Adobe Illustrator 26.0.3, SVG Export Plug-In . SVG Version: 6.00 Build 0)  -->
<svg version="1.1" id="Layer_1" xmlns="http://www.w3.org/2000/svg" xmlns:xlink="http://www.w3.org/1999/xlink" x="0px" y="0px"
	 viewBox="0 0 252 144" style="enable-background:new 0 0 252 144;" xml:space="preserve">
<style type="text/css">
	.st0{fill:#282A2D;}
	.st1{fill:#E5BC79;}
	.st2{fill:#5B7A8C;}
	.st3{fill:#23475E;}
	.st4{fill:#A35C26;}
	.st5{fill:none;stroke:#FFFFFF;stroke-width:1.7918;stroke-miterlimit:10;}
</style>
<rect x="-0.4" class="st0" width="253.2" height="144"/>
<polygon class="st1" points="114,8.1 118,12.4 124.7,15.6 128,20 128,29.2 133.9,36.3 133.9,41.1 124,37.5 121.2,28 121.2,21.6 
	106.9,8.1 "/>
<polygon class="st1" points="197.2,43.5 203.6,46.7 206.8,57.8 214.8,68.2 223.1,70.6 226.3,75.7 217.1,75.7 207.2,69.8 202.4,69.8 
	198.8,63.8 200.8,59.6 199.2,55.4 192.9,53.8 192.9,41.1 "/>
<polygon class="st1" points="250.1,98 245.4,96 242.6,90.3 237.4,90.3 241,100 245.8,104.4 246.6,112 252.6,119.5 "/>
<path class="st2" d="M121.7,0l14.2,16.7v8.8c0,3,1.5,5.8,4.1,7.4l3.2,2l11.9,3h7.2l5.5-4.2l5.9,4.2h11.9l9.4-6l14.4,8.1l5.5,17
	l5.5,5.5h8.9l7.6,13.6l3.8,6.8l12,5.6V0H121.7z"/>
<path class="st3" d="M125.8,0l13.5,12.2l0,0v10.9c0,1.7,0.9,3.3,2.3,4.2l4.2,2.8c0.5,0.3,1,0.5,1.5,0.6l11.1,2.8l0,0h7.2l2.6-2
	c1.7-1.3,4.1-1.4,5.9-0.1l1.6,1.2c0.9,0.6,1.9,0.9,2.9,0.9h10.3l0,0l6.8-4.4c1.6-1,3.5-1,5.1-0.1l10.1,5.7c1.1,0.6,1.9,1.6,2.3,2.8
	l4.6,14c0.2,0.8,0.7,1.4,1.2,2l4.7,4.7h6c1.8,0,3.5,1,4.3,2.5l6.2,11.1l3,5.3c0.6,1,8.2,6.7,9.3,7.2l0,0c-0.2-3.2,0.1-3.3,0-5.5
	c-0.1-1.1,0-2.9,0-4.1V0H125.8z"/>
<polygon class="st4" points="115.5,6.2 119.5,10.5 126.2,13.7 129.5,18.1 129.5,27.2 135.4,34.4 135.4,39.2 125.5,35.6 122.7,26 
	122.7,19.7 108.4,6.2 "/>
<polygon class="st4" points="198.7,41.5 205.1,44.8 208.3,55.9 216.3,66.3 224.6,68.7 227.8,73.8 218.6,73.8 208.7,67.9 203.9,67.9 
	200.3,61.9 202.3,57.7 200.7,53.5 194.4,51.9 194.4,39.2 "/>
<polygon class="st4" points="251.6,96.1 246.9,94.1 244.1,88.4 238.9,88.4 242.5,98.1 247.3,102.5 246.9,110.6 252.6,116.9 "/>
<polygon class="st1" points="99.2,3 97.9,6.2 102,6 103.4,2.7 "/>
<polygon class="st4" points="98.7,1.8 97.3,5 101.5,4.9 102.9,1.5 "/>
<polygon class="st1" points="182.7,42.9 179.2,43.3 181.4,46.8 185,46.4 "/>
<polygon class="st4" points="183.4,41.8 180,42.2 182.1,45.8 185.8,45.3 "/>
<polygon class="st1" points="185.9,52.4 182.5,52.8 184.7,56.3 188.3,55.9 "/>
<polygon class="st4" points="186.7,51.3 183.3,51.7 185.4,55.3 189.1,54.8 "/>
<polygon class="st1" points="235.6,83 232.2,83.4 234.3,86.9 238,86.5 "/>
<polygon class="st4" points="236.4,81.9 232.9,82.3 235.1,85.8 238.7,85.4 "/>
<polygon class="st1" points="246.7,122.3 243.2,122.7 245.4,126.2 249,125.8 "/>
<polygon class="st4" points="247.4,121.2 244,121.6 246.1,125.2 249.8,124.7 "/>
<line class="st5" x1="123.9" y1="122.3" x2="123.9" y2="80.3"/>
</svg>
