<?xml version="1.0" encoding="utf-8"?>
<!-- Generator: Adobe Illustrator 26.0.3, SVG Export Plug-In . SVG Version: 6.00 Build 0)  -->
<svg version="1.1" id="Layer_1" xmlns="http://www.w3.org/2000/svg" xmlns:xlink="http://www.w3.org/1999/xlink" x="0px" y="0px"
	 viewBox="0 0 252 144" style="enable-background:new 0 0 252 144;" xml:space="preserve">
<style type="text/css">
	.st0{fill:#282A2D;}
	.st1{fill:#E5BC79;}
	.st2{fill:#5B7A8C;}
	.st3{fill:#23475E;}
	.st4{fill:#A35C26;}
</style>
<rect x="0" y="-0.66" class="st0" width="251.88" height="144.64"/>
<polygon class="st1" points="227.47,125.89 231.29,125.89 234.88,132.66 241.85,132.66 239.15,129.27 235.87,129.27 232.41,122.16 
	223.87,124.3 "/>
<polygon class="st1" points="125.6,53.7 125.6,57.49 135.12,57.49 137.33,53.7 140.43,53.7 154.81,53.7 159.24,50.79 157.25,48.78 
	148.39,51.24 146.29,48.78 142.42,48.4 140.5,50.46 133.18,52.95 125.6,52.4 "/>
<polygon class="st1" points="112.59,46.88 110.88,49.33 113.87,50.55 115.37,46.88 "/>
<polygon class="st1" points="116.98,52.65 114.41,54.47 115.48,56.75 118.05,56.75 119.33,52.65 "/>
<polygon class="st1" points="175.33,24.6 173.97,31.78 178.01,29.63 180.14,26.13 179.52,21.27 183.33,19.33 196.79,12.54 
	199.64,6.79 197.57,0.78 192.39,0.78 194.46,4.76 193.68,9.66 185.96,14.89 180.49,15.93 173.87,17.85 "/>
<polygon class="st1" points="202.43,12.01 202.43,15.46 206.28,13.73 206.28,10.06 "/>
<polygon class="st1" points="204.79,2.06 203.93,5.55 208.64,5.55 208.64,2.06 "/>
<path class="st2" d="M165.27,143.98l3.21-4.15c1.77-2.3,4.06-4.14,6.66-5.39l3.63-1.73l6.79-1.36c3.48-0.7,7.08-0.53,10.48,0.47
	l4.38,1.29l9.28,0.8l6.75,3.22l5.81-6.15c0.42-0.44,1.01-0.68,1.61-0.65l0,0c3.04,0,4.97,1.28,6.96,3.6l1.54,1.78l14.36-0.4
	l5.15,8.66H165.27z"/>
<path class="st2" d="M1.76,143.98l19.25-0.03c0.73,0,1.37-0.47,1.6-1.16l2.94-8.81c0.14-0.41,0.42-0.75,0.8-0.96l11.08-6.02
	c0.55-0.3,0.89-0.88,0.89-1.51v-4.92c0-0.26-0.06-0.52-0.18-0.76l-2.39-4.86c-0.25-0.51-0.23-1.1,0.04-1.6l3.35-6.04
	c0.19-0.34,0.48-0.6,0.84-0.75l3.07-1.26c0.2-0.08,0.42-0.13,0.64-0.13h1.53c0.12,0,0.23-0.01,0.34-0.04l3.56-0.74
	c0.32-0.07,0.62-0.23,0.85-0.47l0.31-0.31c0.48-0.48,1.19-0.63,1.82-0.38l4.88,1.95c0.65,0.26,1.07,0.89,1.07,1.59v1.38
	c0,0.53,0.24,1.03,0.65,1.35l1.31,1.03c0.41,0.32,0.65,0.82,0.65,1.35l0,0c0,0.93,0.73,1.68,1.65,1.71l3.1,0.09
	c0.23,0.01,0.45-0.03,0.67-0.12l5.89-2.33c0.32-0.13,0.59-0.34,0.78-0.63l1.56-2.31c0.21-0.32,0.53-0.55,0.89-0.67l3.96-1.26
	c0.37-0.12,0.77-0.1,1.14,0.04l5.2,2.1c0.04,0.02,0.09,0.04,0.13,0.06l2.74,1.38c0.26,0.13,0.56,0.19,0.85,0.18l9.45-0.52
	c0.47-0.03,0.9-0.24,1.2-0.6l1.86-2.22c0.51-0.61,0.54-1.48,0.07-2.12l-1.83-2.49c-0.19-0.25-0.44-0.45-0.73-0.57L85.69,96.1
	c-0.07-0.03-0.14-0.06-0.21-0.1l-1.55-0.89c-0.26-0.15-0.55-0.23-0.84-0.23h-1.91c-0.45,0-0.88-0.18-1.2-0.5l-1.03-1.04
	c-0.48-0.49-0.63-1.22-0.37-1.86l1.27-3.12c0.21-0.51,0.65-0.89,1.19-1.02l3.68-0.85c0.36-0.08,0.69-0.28,0.92-0.57l1.08-1.31
	c0.44-0.54,0.52-1.29,0.19-1.91l-0.74-1.39c-0.36-0.67-0.24-1.49,0.29-2.02l3.9-3.93c0.38-0.38,0.9-0.56,1.43-0.48l3.76,0.53
	c0.42,0.06,0.79,0.27,1.06,0.59l2.55,3.07c0.06,0.07,0.12,0.13,0.18,0.19l4.7,4.14c0.53,0.47,1.29,0.55,1.91,0.22l0.88-0.47
	c0.36-0.19,0.65-0.52,0.79-0.91l1.53-4.08c0.18-0.48,0.14-1.01-0.11-1.45l-1.83-3.27c-0.16-0.29-0.24-0.62-0.22-0.95l0.06-0.93
	c0.04-0.57,0.35-1.08,0.84-1.37l1.87-1.1c0.52-0.31,0.84-0.87,0.84-1.48v-3.47c0-0.26-0.06-0.52-0.17-0.76l-4.51-9.24
	c-0.08-0.16-0.13-0.34-0.16-0.52l-0.96-7.08c-0.01-0.09-0.03-0.18-0.06-0.27l-1.39-4.54c-0.2-0.64,0-1.34,0.5-1.78l5.02-4.47
	c0.28-0.25,0.62-0.4,0.99-0.42l7.6-0.59c0.76-0.06,1.47,0.41,1.73,1.13l0.97,2.76c0.13,0.37,0.13,0.77,0,1.13l-0.68,1.98
	c-0.18,0.52-0.1,1.1,0.21,1.55l1.86,2.66c0.26,0.38,0.66,0.63,1.11,0.7l5.16,0.85c0.26,0.04,0.53,0.02,0.78-0.06l7.18-2.29
	c0.47-0.15,0.85-0.5,1.04-0.95l1.56-3.64c0.28-0.65,0.92-1.06,1.62-1.03l1.52,0.06c0.6,0.02,1.14,0.36,1.42,0.89l0.86,1.61
	c0.34,0.64,1.04,0.99,1.75,0.88l7.06-1.11c0.13-0.02,0.27-0.06,0.39-0.11l12.62-5.3c0.53-0.22,0.91-0.7,1.02-1.27l1.39-7.65
	c0.05-0.26,0.03-0.53-0.04-0.78l-1.9-6.65c-0.11-0.39-0.08-0.81,0.09-1.18l1.65-3.66c0.18-0.39,0.5-0.71,0.89-0.87l6.79-2.84
	c0.21-0.09,0.43-0.13,0.65-0.13h4.55c0.23,0,0.46-0.05,0.68-0.14l4.34-1.91c0.62-0.27,1.02-0.89,1.02-1.57V1.09
	c0-0.96-0.78-1.73-1.73-1.71L6.44,3.29c-0.9,0.02-1.62,0.74-1.66,1.65L0.06,142.21C0.03,143.18,0.8,143.98,1.76,143.98z"/>
<path class="st3" d="M2.19,143.31l14.55-4.45c0.51-0.16,0.91-0.54,1.1-1.05l2.87-7.86c0.14-0.39,0.42-0.72,0.79-0.91L32.6,123
	c0.55-0.3,0.89-0.88,0.89-1.51v-4.92c0-0.26-0.06-0.52-0.18-0.76l-2.39-4.86c-0.25-0.51-0.23-1.1,0.04-1.6l3.35-6.04
	c0.19-0.34,0.48-0.6,0.84-0.75l3.07-1.26c0.2-0.08,0.42-0.13,0.64-0.13h1.53c0.12,0,0.23-0.01,0.34-0.04l3.56-0.74
	c0.32-0.07,0.62-0.23,0.85-0.47l0.31-0.31c0.48-0.48,1.19-0.63,1.82-0.38l4.88,1.95c0.65,0.26,1.07,0.89,1.07,1.59v1.38
	c0,0.53,0.24,1.03,0.65,1.35l1.31,1.03c0.41,0.32,0.65,0.82,0.65,1.35v0c0,0.93,0.73,1.68,1.65,1.71l3.1,0.09
	c0.23,0.01,0.45-0.03,0.67-0.12l5.89-2.33c0.32-0.13,0.59-0.34,0.78-0.63l1.56-2.31c0.21-0.32,0.53-0.55,0.89-0.67l3.96-1.26
	c0.37-0.12,0.77-0.1,1.14,0.04l5.2,2.1c0.04,0.02,0.09,0.04,0.13,0.06l2.74,1.38c0.26,0.13,0.56,0.19,0.85,0.18l9.45-0.52
	c0.47-0.03,0.9-0.24,1.2-0.6l1.86-2.22c0.51-0.61,0.54-1.48,0.07-2.12l-1.83-2.49c-0.19-0.25-0.44-0.45-0.73-0.57l-13.57-5.51
	c-0.07-0.03-0.14-0.06-0.21-0.1l-1.55-0.89c-0.26-0.15-0.55-0.23-0.84-0.23h-1.91c-0.45,0-0.88-0.18-1.2-0.5l-1.03-1.04
	c-0.48-0.49-0.63-1.22-0.37-1.86l1.27-3.12c0.21-0.51,0.65-0.89,1.19-1.02l3.68-0.85c0.36-0.08,0.69-0.28,0.92-0.57l1.08-1.31
	c0.44-0.54,0.52-1.29,0.19-1.91l-0.74-1.39c-0.36-0.67-0.24-1.49,0.29-2.02l3.9-3.93c0.38-0.38,0.9-0.56,1.43-0.48l3.76,0.53
	c0.42,0.06,0.79,0.27,1.06,0.59l2.55,3.07c0.06,0.07,0.12,0.13,0.18,0.19l4.7,4.14c0.53,0.47,1.29,0.55,1.91,0.22l0.88-0.47
	c0.36-0.19,0.65-0.52,0.79-0.91l1.53-4.08c0.18-0.48,0.14-1.01-0.11-1.45l-1.83-3.27c-0.16-0.29-0.24-0.62-0.22-0.95l0.06-0.93
	c0.04-0.57,0.35-1.08,0.84-1.37l1.87-1.1c0.52-0.31,0.84-0.87,0.84-1.48v-3.47c0-0.26-0.06-0.52-0.17-0.76l-4.51-9.24
	c-0.08-0.16-0.13-0.34-0.16-0.52l-0.96-7.08c-0.01-0.09-0.03-0.18-0.06-0.27l-1.39-4.54c-0.2-0.64,0-1.34,0.5-1.78l5.02-4.47
	c0.28-0.25,0.62-0.4,0.99-0.42l7.6-0.59c0.76-0.06,1.47,0.41,1.73,1.13l0.97,2.76c0.13,0.37,0.13,0.77,0,1.13l-0.68,1.98
	c-0.18,0.52-0.1,1.1,0.21,1.55l1.86,2.66c0.26,0.38,0.66,0.63,1.11,0.7l5.16,0.85c0.26,0.04,0.53,0.02,0.78-0.06l7.18-2.29
	c0.47-0.15,0.85-0.5,1.04-0.95l1.56-3.64c0.28-0.65,0.92-1.06,1.62-1.03l1.52,0.06c0.6,0.02,1.14,0.36,1.42,0.89l0.86,1.61
	c0.34,0.64,1.04,0.99,1.75,0.88l7-1.1c0.17-0.03,0.34-0.08,0.5-0.16l10.57-5.34c0.35-0.18,0.63-0.47,0.79-0.84l3.43-7.83
	c0.16-0.37,0.19-0.78,0.08-1.17l-1.84-6.44c-0.11-0.39-0.08-0.81,0.09-1.18l1.65-3.66c0.18-0.39,0.5-0.71,0.89-0.87l6.79-2.84
	c0.21-0.09,0.43-0.13,0.65-0.13h4.55c0.23,0,0.46-0.05,0.68-0.14l4.34-1.91c0.62-0.27,1.02-0.89,1.02-1.57V1.05
	c0-0.94-0.76-1.71-1.69-1.71H1.69C0.76-0.66,0,0.1,0,1.05v140.63C0,142.83,1.1,143.65,2.19,143.31z"/>
<polygon class="st1" points="29.55,140.95 31.99,136.26 44.16,130.01 45.04,122.63 47.25,120.62 50.13,123.97 49.24,129.11 
	45.34,133.59 38.18,136.04 33.09,142.29 "/>
<polygon class="st4" points="124.69,51.84 124.69,55.64 134.21,55.64 136.42,51.84 139.52,51.84 153.9,51.84 158.33,48.94 
	156.34,46.93 147.48,49.39 145.38,46.93 141.51,46.55 139.59,48.6 132.27,51.1 124.69,50.55 "/>
<polygon class="st4" points="173.59,23.16 172.24,30.34 176.27,28.19 178.41,24.69 177.78,19.83 181.6,17.89 195.05,11.1 
	197.9,5.35 195.83,-0.66 190.66,-0.66 192.73,3.32 191.95,8.22 184.23,13.45 178.75,14.49 172.13,16.41 "/>
<polygon class="st4" points="201.46,11.13 201.46,14.59 205.31,12.86 205.31,9.19 "/>
<polygon class="st4" points="203.82,1.58 202.96,5.07 207.67,5.07 207.67,1.58 "/>
<polygon class="st4" points="112.59,45.63 110.88,48.08 113.87,49.3 115.37,45.63 "/>
<polygon class="st4" points="116.54,51.29 113.98,53.11 115.05,55.4 117.61,55.4 118.9,51.29 "/>
<path class="st3" d="M171.91,142.87l5.71-5.22c0.07-0.06,0.14-0.1,0.23-0.13l6.48-2.18c0.04-0.01,0.07-0.02,0.11-0.03l10.45-1.47
	c0.07-0.01,0.14-0.01,0.22,0.01l8.24,1.71c0.03,0.01,0.06,0.01,0.09,0.01l8.02,0.49c0.06,0,0.11,0.01,0.16,0.03l5.53,1.86
	c0.2,0.07,0.41,0.03,0.58-0.09l5.24-3.91c0.11-0.08,0.24-0.13,0.38-0.13h3.72c0.17,0,0.33,0.07,0.45,0.19l3.82,3.86
	c0.12,0.12,0.28,0.19,0.45,0.19h12.35c0.14,0,0.28,0.05,0.39,0.14l5.89,4.64c0.48,0.38,0.21,1.15-0.39,1.15h-77.7
	C171.76,143.98,171.48,143.26,171.91,142.87z"/>
<polygon class="st4" points="27.12,139.79 29.56,135.1 41.73,128.85 42.61,121.47 44.83,119.46 47.7,122.81 46.82,127.95 
	42.92,132.43 35.75,134.88 30.67,141.13 "/>
<polygon class="st1" points="40.44,138.94 39.1,142.13 43.22,142.01 44.64,138.63 "/>
<polygon class="st1" points="44.45,111.87 42.31,114.75 46.65,116.6 47.99,113.39 "/>
<polygon class="st4" points="39.9,137.77 38.57,140.95 42.69,140.83 44.11,137.45 "/>
<polygon class="st4" points="43.74,111.04 41.6,113.92 45.94,115.77 47.28,112.56 "/>
<polygon class="st1" points="162.58,135.51 168,129.52 176.2,126.41 185.73,126.41 182.33,122.16 172.65,122.16 169.45,124.85 
	163.32,129.52 155.64,139.02 161.57,140.77 "/>
<polygon class="st4" points="164.03,136.67 169.45,130.68 177.65,127.57 187.18,127.57 183.78,123.32 174.1,123.32 170.9,126 
	164.76,130.68 157.09,140.18 163.02,141.93 "/>
<polygon class="st4" points="226.2,127.05 230.02,127.05 233.62,133.82 240.59,133.82 237.89,130.43 234.6,130.43 231.15,123.32 
	222.61,125.46 "/>
<polygon class="st1" points="247.31,132.95 250.72,132.61 248.64,128.91 245.02,129.27 "/>
<polygon class="st1" points="192.56,127.07 194.56,124.09 190.14,122.45 188.95,125.73 "/>
<polygon class="st4" points="246.54,134.01 249.95,133.67 247.87,129.97 244.25,130.33 "/>
<polygon class="st4" points="193.31,127.86 195.3,124.88 190.88,123.25 189.7,126.52 "/>
</svg>
