<?xml version="1.0" encoding="utf-8"?>
<!-- Generator: Adobe Illustrator 26.0.3, SVG Export Plug-In . SVG Version: 6.00 Build 0)  -->
<svg version="1.1" id="Layer_1" xmlns="http://www.w3.org/2000/svg" xmlns:xlink="http://www.w3.org/1999/xlink" x="0px" y="0px"
	 viewBox="0 0 12.7 12.7" style="enable-background:new 0 0 12.7 12.7;" xml:space="preserve">
<style type="text/css">
	.st0{stroke:#000000;stroke-width:1.079239e-02;stroke-miterlimit:10;}
	.st1{stroke:#000000;stroke-width:1.912462e-02;stroke-miterlimit:10;}
	.st2{fill:#151314;}
</style>
<g>
	<path class="st1" d="M10.8,9.5c0.3,0.1,0.5,0.3,0.7,0.5c0.6-0.9,1.1-2,1.1-3.2h-0.9C11.7,7.8,11.3,8.7,10.8,9.5z"/>
	<path d="M0.9,6.8H0.1V5.9h0.8c0.1-1,0.4-2,1-2.7C1.6,3,1.4,2.9,1.2,2.7C0.4,3.7,0,5,0,6.3C0,7.7,0.4,9,1.2,10
		c0.2-0.2,0.5-0.3,0.7-0.5C1.3,8.8,1,7.8,0.9,6.8z"/>
	<path class="st1" d="M11.8,5.9h0.9c-0.1-1.2-0.5-2.3-1.1-3.2C11.3,2.9,11,3,10.8,3.2C11.3,4,11.7,4.9,11.8,5.9z"/>
	<path class="st1" d="M4,4C3.8,3.9,3.5,3.9,3.3,3.8C3.1,4.4,3,5.2,3,5.9h0.8C3.8,5.2,3.9,4.6,4,4z"/>
	<path class="st1" d="M9,5.9h0.8c0-0.8-0.1-1.5-0.3-2.2C9.2,3.8,9,3.9,8.7,4C8.9,4.6,9,5.2,9,5.9z"/>
	<path class="st1" d="M3.8,6.8H3C3,7.5,3.1,8.3,3.2,9C3.5,8.9,3.8,8.8,4,8.7C3.9,8.1,3.8,7.5,3.8,6.8z"/>
	<path class="st1" d="M8.7,8.7C9,8.8,9.3,8.9,9.5,9c0.2-0.7,0.3-1.4,0.3-2.2H9C9,7.5,8.9,8.1,8.7,8.7z"/>
	<path d="M2.4,10.1C2.2,10,2.1,9.8,1.9,9.6C1.7,9.7,1.4,9.9,1.2,10c0.2,0.2,0.3,0.4,0.5,0.6C1.9,10.5,2.1,10.3,2.4,10.1z"/>
	<path class="st1" d="M10.3,10.1c0.3,0.2,0.5,0.3,0.7,0.5c0.2-0.2,0.3-0.4,0.5-0.6c-0.2-0.2-0.5-0.3-0.7-0.5
		C10.6,9.7,10.5,9.9,10.3,10.1z"/>
	<path class="st1" d="M9.3,9.6c0.3,0.1,0.7,0.3,1,0.5c0.2-0.2,0.3-0.4,0.5-0.6C10.4,9.3,10,9.1,9.5,9C9.5,9.2,9.4,9.4,9.3,9.6z"/>
	<path d="M3.2,9C2.8,9.1,2.3,9.3,1.9,9.6c0.1,0.2,0.3,0.4,0.5,0.6c0.3-0.2,0.7-0.4,1-0.5C3.4,9.4,3.3,9.2,3.2,9z"/>
	<path class="st1" d="M4,8.7C3.8,8.8,3.5,8.9,3.2,9c0.1,0.2,0.1,0.5,0.2,0.7c0.2-0.1,0.5-0.2,0.8-0.3C4.1,9.2,4.1,9,4,8.7z"/>
	<path class="st1" d="M8.5,9.4c0.3,0.1,0.5,0.2,0.8,0.3C9.4,9.4,9.5,9.2,9.5,9C9.3,8.9,9,8.8,8.7,8.7C8.7,9,8.6,9.2,8.5,9.4z"/>
	<path class="st1" d="M6.8,8.5v0.7c0.6,0,1.2,0.1,1.8,0.3C8.6,9.2,8.7,9,8.7,8.7C8.1,8.6,7.5,8.5,6.8,8.5z"/>
	<path class="st1" d="M5.9,8.5C5.3,8.5,4.6,8.6,4,8.7C4.1,9,4.1,9.2,4.2,9.4c0.5-0.1,1.1-0.2,1.7-0.3V8.5z"/>
	<path class="st1" d="M8.5,11.4c-0.4,0.7-1,1.1-1.6,1.3c1.6-0.2,3-0.9,4.1-2c-0.2-0.2-0.5-0.3-0.7-0.5C9.8,10.6,9.2,11.1,8.5,11.4z"
		/>
	<path d="M5.9,12.7c-0.6-0.2-1.1-0.6-1.6-1.2c-0.7-0.3-1.4-0.7-1.9-1.3c-0.3,0.2-0.5,0.3-0.7,0.5C2.7,11.8,4.2,12.5,5.9,12.7z"/>
	<path class="st1" d="M6.8,12.7c0.1,0,0.1,0,0.2,0c0.6-0.2,1.1-0.6,1.6-1.3c-0.5,0.2-1.1,0.4-1.7,0.4V12.7z"/>
	<path class="st1" d="M5.9,11.8c-0.6,0-1.1-0.2-1.6-0.4c0.4,0.6,1,1.1,1.6,1.2c0,0,0.1,0,0.1,0V11.8z"/>
	<path class="st1" d="M5.9,11.7c-0.7-0.3-1.3-1.1-1.7-2.4C3.9,9.5,3.7,9.5,3.4,9.6c0.2,0.7,0.5,1.3,0.9,1.8
		C4.8,11.6,5.4,11.8,5.9,11.7L5.9,11.7z"/>
	<path class="st1" d="M8.5,9.4c-0.4,1.3-1,2.1-1.8,2.4v0c0.6,0,1.2-0.2,1.7-0.4c0.3-0.5,0.6-1.1,0.8-1.7C9.1,9.5,8.8,9.5,8.5,9.4z"
		/>
	<path class="st1" d="M2.4,2.6C2.1,2.5,1.9,2.3,1.6,2.1C1.5,2.3,1.3,2.5,1.2,2.7C1.4,2.9,1.6,3,1.9,3.2C2.1,3,2.2,2.8,2.4,2.6z"/>
	<path class="st1" d="M10.3,2.6c0.2,0.2,0.3,0.4,0.5,0.6C11,3,11.3,2.9,11.5,2.7c-0.1-0.2-0.3-0.4-0.5-0.6
		C10.8,2.3,10.6,2.5,10.3,2.6z"/>
	<path class="st1" d="M3.4,3.1C3.1,3,2.7,2.8,2.4,2.6C2.2,2.8,2.1,3,1.9,3.2c0.4,0.2,0.9,0.4,1.3,0.6C3.3,3.6,3.4,3.3,3.4,3.1z"/>
	<path class="st1" d="M9.5,3.7c0.5-0.2,0.9-0.3,1.3-0.6c-0.1-0.2-0.3-0.4-0.5-0.6C10,2.8,9.7,3,9.3,3.1C9.4,3.3,9.4,3.5,9.5,3.7z"/>
	<path class="st1" d="M8.7,4C9,3.9,9.2,3.8,9.5,3.7C9.4,3.5,9.4,3.3,9.3,3.1C9.1,3.2,8.8,3.3,8.5,3.4C8.6,3.5,8.7,3.8,8.7,4z"/>
	<path class="st1" d="M4.2,3.4C3.9,3.3,3.7,3.2,3.4,3.1C3.4,3.3,3.3,3.6,3.3,3.8C3.5,3.9,3.8,3.9,4,4C4.1,3.8,4.1,3.6,4.2,3.4z"/>
	<path class="st1" d="M5.9,3.6c-0.6,0-1.2-0.1-1.7-0.3C4.1,3.6,4.1,3.8,4,4c0.6,0.1,1.2,0.2,1.9,0.3V3.6z"/>
	<path class="st1" d="M6.8,4.2c0.7,0,1.3-0.1,2-0.3C8.7,3.8,8.6,3.5,8.5,3.4C8,3.5,7.4,3.6,6.8,3.6V4.2z"/>
	<path class="st1" d="M4.3,1.3c0.5-0.6,1-1,1.6-1.2V0.1h0.4h0.4v0C7.4,0.2,8,0.7,8.4,1.3c0.7,0.3,1.3,0.7,1.8,1.3
		c0.3-0.2,0.5-0.3,0.7-0.5C9.9,0.8,8.2,0,6.3,0S2.8,0.8,1.6,2.1c0.2,0.2,0.5,0.4,0.7,0.5C2.9,2,3.6,1.6,4.3,1.3z"/>
	<path class="st1" d="M5.9,0.1C5.3,0.3,4.8,0.7,4.3,1.3c0.5-0.2,1-0.3,1.6-0.4V0.1z"/>
	<path class="st1" d="M8.4,1.3C8,0.7,7.4,0.2,6.8,0.1v0.8C7.4,1,7.9,1.1,8.4,1.3z"/>
	<path class="st1" d="M5.9,1L5.9,1C5.4,1,4.8,1.1,4.3,1.3C4,1.8,3.7,2.4,3.4,3.1c0.2,0.1,0.5,0.2,0.8,0.2C4.6,2.1,5.2,1.3,5.9,1z"/>
	<path class="st1" d="M6.8,1c0.7,0.2,1.4,1.1,1.8,2.4c0.3-0.1,0.5-0.2,0.8-0.2C9.1,2.4,8.8,1.8,8.4,1.3C7.9,1.1,7.4,1,6.8,1L6.8,1z"
		/>
	<path d="M5.9,6.8v1.7c0.1,0,0.3,0,0.4,0c0.1,0,0.3,0,0.4,0V6.8H5.9z"/>
	<path d="M6.8,4.2c-0.1,0-0.3,0-0.4,0c-0.1,0-0.3,0-0.4,0v1.7h0.8V4.2z"/>
	<path d="M5.9,8.5v0.7c0.1,0,0.3,0,0.4,0c0.1,0,0.3,0,0.4,0V8.5c-0.1,0-0.3,0-0.4,0C6.2,8.5,6.1,8.5,5.9,8.5z"/>
	<path d="M6.8,12.7L6.8,12.7c-0.1,0-0.3,0-0.4,0H6.8z"/>
	<path d="M5.9,12.7h0.4C6.2,12.7,6.1,12.7,5.9,12.7L5.9,12.7z"/>
	<path d="M6.4,11.8C6.4,11.8,6.4,11.8,6.4,11.8C6.4,11.8,6.3,11.8,6.4,11.8c-0.2,0-0.3,0-0.4,0v0.9c0.1,0,0.3,0,0.4,0
		c0.1,0,0.3,0,0.4,0v-0.9C6.7,11.8,6.5,11.8,6.4,11.8C6.4,11.8,6.4,11.8,6.4,11.8z"/>
	<path d="M6.4,11.8c-0.1,0-0.3,0-0.4-0.1v0.1C6.1,11.8,6.2,11.8,6.4,11.8C6.3,11.8,6.4,11.8,6.4,11.8z"/>
	<path d="M6.8,11.8L6.8,11.8c-0.1,0-0.2,0-0.3,0C6.5,11.8,6.7,11.8,6.8,11.8z"/>
	<path d="M6.4,11.8C6.4,11.8,6.4,11.8,6.4,11.8C6.4,11.8,6.4,11.8,6.4,11.8C6.4,11.8,6.4,11.8,6.4,11.8z"/>
	<path d="M6.4,9.1c-0.2,0-0.3,0-0.4,0v2.6c0.1,0.1,0.3,0.1,0.4,0.1c0,0,0,0,0.1,0c0.1,0,0.2,0,0.3-0.1V9.1C6.6,9.1,6.5,9.1,6.4,9.1z
		"/>
	<path d="M6.8,4.2V3.6c-0.1,0-0.3,0-0.4,0c-0.1,0-0.3,0-0.4,0v0.6c0.1,0,0.3,0,0.4,0C6.5,4.3,6.6,4.3,6.8,4.2z"/>
	<path class="st2" d="M6.8,0.1H6.4C6.5,0.1,6.6,0.1,6.8,0.1L6.8,0.1z"/>
	<path class="st2" d="M5.9,0.1L5.9,0.1c0.1,0,0.3,0,0.4,0H5.9z"/>
	<path d="M6.3,0.9C6.3,0.9,6.4,0.9,6.3,0.9C6.4,0.9,6.4,0.9,6.3,0.9C6.4,0.9,6.4,0.9,6.3,0.9c0.2,0,0.3,0,0.4,0V0.1
		c-0.1,0-0.3,0-0.4,0c-0.2,0-0.3,0-0.4,0.1v0.8C6.1,0.9,6.2,0.9,6.3,0.9z"/>
	<path d="M6.3,0.9c-0.1,0-0.3,0-0.4,0V1C6.1,0.9,6.2,0.9,6.3,0.9C6.4,0.9,6.3,0.9,6.3,0.9z"/>
	<path d="M6.8,0.9c-0.1,0-0.2,0-0.3,0C6.5,0.9,6.7,0.9,6.8,0.9L6.8,0.9z"/>
	<path d="M6.4,0.9C6.4,0.9,6.4,0.9,6.4,0.9C6.4,0.9,6.4,0.9,6.4,0.9C6.4,0.9,6.4,0.9,6.4,0.9z"/>
	<path d="M6.3,3.6c0.1,0,0.3,0,0.4,0V1c-0.1,0-0.2-0.1-0.3-0.1c0,0,0,0-0.1,0c-0.1,0-0.3,0-0.4,0.1v2.6C6.1,3.6,6.2,3.6,6.3,3.6z"/>
	<path d="M12.7,6.8L12.7,6.8l0-0.8h0c0,0.1,0,0.3,0,0.4C12.7,6.5,12.7,6.6,12.7,6.8z"/>
	<path d="M11.8,6.4c0,0.1,0,0.3,0,0.4h0.9c0-0.1,0-0.3,0-0.4c0-0.1,0-0.3,0-0.4h-0.9C11.8,6.1,11.8,6.2,11.8,6.4z"/>
	<path class="st2" d="M0.9,5.9H0.1v0.8h0.8c0-0.1,0-0.3,0-0.4C0.9,6.2,0.9,6.1,0.9,5.9z"/>
	<path d="M9.8,6.4c0,0.1,0,0.2,0,0.4h2c0-0.1,0-0.3,0-0.4c0-0.1,0-0.3,0-0.4h-2C9.8,6.1,9.8,6.2,9.8,6.4z"/>
	<path d="M2.9,6.4c0-0.2,0-0.3,0-0.5H0.9c0,0.1,0,0.3,0,0.4c0,0.1,0,0.3,0,0.4H3C2.9,6.6,2.9,6.5,2.9,6.4z"/>
	<path d="M9,6.4c0,0.1,0,0.3,0,0.4h0.8c0-0.1,0-0.2,0-0.4c0-0.2,0-0.3,0-0.5H9C9,6.1,9,6.2,9,6.4z"/>
	<path d="M3.8,6.4c0-0.1,0-0.3,0-0.4H3c0,0.2,0,0.3,0,0.5c0,0.1,0,0.2,0,0.4h0.8C3.8,6.6,3.8,6.5,3.8,6.4z"/>
	<path d="M5.9,5.9H3.8c0,0.1,0,0.3,0,0.4c0,0.1,0,0.3,0,0.4h2.2V5.9z"/>
	<path d="M6.8,6.8H9c0-0.1,0-0.3,0-0.4c0-0.1,0-0.3,0-0.4H6.8V6.8z"/>
	<rect x="5.9" y="5.9" width="0.8" height="0.8"/>
</g>
</svg>
