<?xml version="1.0" encoding="utf-8"?>
<!-- Generator: Adobe Illustrator 26.0.3, SVG Export Plug-In . SVG Version: 6.00 Build 0)  -->
<svg version="1.1" id="Layer_1" xmlns="http://www.w3.org/2000/svg" xmlns:xlink="http://www.w3.org/1999/xlink" x="0px" y="0px"
	 viewBox="0 0 11.4 11.5" style="enable-background:new 0 0 11.4 11.5;" xml:space="preserve">
<style type="text/css">
	.st0{stroke:#000000;stroke-width:1.079239e-02;stroke-miterlimit:10;}
	.st1{stroke:#000000;stroke-width:1.912462e-02;stroke-miterlimit:10;}
	.st2{fill:#151314;}
</style>
<path d="M0.9,0.6C0.6,0.8,0.4,1.2,0.2,1.7c0,0-0.4,1,0,2.3c0,0,1.3,4,5.2,6.4c0,0,1.7,0.9,3.2,1.1c0.3,0,0.6,0,0.8-0.1
	c0.3-0.1,0.6-0.2,1-0.4c0.6-0.4,1.1-1.1,1.1-1.8c0,0,0,0,0,0c0-0.2-0.1-0.4-0.3-0.6c-0.4-0.2-1.4-0.8-1.9-1.1C9,7.4,8.7,7.3,8.5,7.4
	c-0.1,0-0.2,0.1-0.3,0.3L7.4,8.6c0,0-0.3,0.4-0.8,0.1c0,0-2.1-1-3.4-3.2C3.1,5.4,3,5.1,2.9,5C2.8,4.8,2.6,4.5,2.7,4.3
	c0-0.1,0.1-0.1,0.1-0.2c0.2-0.2,1-0.8,1.3-1.2c0,0,0.1-0.3-0.2-0.6c0,0-0.6-1-1.1-2c0-0.1-0.1-0.2-0.2-0.2c0,0,0,0,0,0
	C2.4,0,2.3,0,2.2,0L1.8,0.1c-0.1,0-0.1,0-0.2,0.1C1.3,0.3,1.1,0.4,0.9,0.6z"/>
</svg>
