<?xml version="1.0" encoding="utf-8"?>
<!-- Generator: Adobe Illustrator 26.0.3, SVG Export Plug-In . SVG Version: 6.00 Build 0)  -->
<svg version="1.1" id="Layer_1" xmlns="http://www.w3.org/2000/svg" xmlns:xlink="http://www.w3.org/1999/xlink" x="0px" y="0px"
	 viewBox="0 0 13.8 8.2" style="enable-background:new 0 0 13.8 8.2;" xml:space="preserve">
<style type="text/css">
	.st0{stroke:#000000;stroke-width:1.079239e-02;stroke-miterlimit:10;}
	.st1{stroke:#000000;stroke-width:1.912462e-02;stroke-miterlimit:10;}
	.st2{fill:#151314;}
</style>
<g>
	<path class="st0" d="M7,4.1L12.5,0c-0.1,0-0.2,0-0.2,0H1.5c-0.1,0-0.3,0-0.4,0l5.5,4.1C6.8,4.3,7,4.1,7,4.1z"/>
	<path class="st0" d="M12.6,0.1c0.1,0.1,0.2,0.2,0.2,0.2L8.6,3.5l4.3,4.3c-0.1,0.2-0.3,0.3-0.3,0.3L8.2,3.7L7.1,4.6
		c-0.2,0.2-0.5,0-0.5,0L5.4,3.7L1.1,8.1C0.9,8,0.8,7.8,0.8,7.8l4.3-4.3L0.8,0.3c0-0.1,0.1-0.1,0.1-0.1C0.4,0.4,0,0.9,0,1.5v5.1
		c0,0.9,0.7,1.5,1.5,1.5h10.7c0.9,0,1.5-0.7,1.5-1.5V1.5C13.8,0.8,13.3,0.2,12.6,0.1z"/>
</g>
</svg>
